<svg width="286" height="77" viewBox="0 0 286 77" fill="none" xmlns="http://www.w3.org/2000/svg">
<path d="M0 61.3197L14.2843 0H22.8017L8.51737 61.3197H0Z" fill="#FBF9F7"/>
<path d="M39.7734 1.75199L38.0876 9.28555H29.5703L31.256 1.75199H39.7734ZM36.5794 15.5927L25.9326 61.3197H17.4153L28.062 15.5927H36.5794Z" fill="#FBF9F7"/>
<path d="M51.5104 15.5927H73.5136L60.5601 70.9556C59.7616 74.2844 56.3901 77 52.93 77H35.8952L37.4922 70.3424H52.2202L54.3495 61.3197H40.8637C37.4035 61.3197 35.2742 58.5165 36.0727 55.1877L43.8802 21.7247C44.6788 18.3959 48.0502 15.5927 51.5104 15.5927ZM55.8578 54.6621L63.3992 22.2503H52.2202L44.6787 54.6621H55.8578Z" fill="#FBF9F7"/>
<path d="M103.592 15.5927C106.963 15.5927 109.093 18.3959 108.294 21.7247L99.0671 61.3197H90.5497L99.5994 22.2503H89.3076L80.2579 61.3197H71.7405L86.0249 0H94.5422L90.9046 15.5927H103.592Z" fill="#FBF9F7"/>
<path d="M132.8 4.46758L130.227 15.5927H137.502L135.905 22.2503H128.63L119.58 61.3197H111.063L120.112 22.2503H112.837L114.434 15.5927H121.709L124.282 4.46758H132.8Z" fill="#FBF9F7"/>
<path d="M179.878 15.5927C183.338 15.5927 185.468 18.3959 184.669 21.7247L182.007 33.2002H167.279L169.498 23.4767H155.213L146.43 61.3197H131.702L142.348 15.5927H179.878Z" fill="#FBF9F7"/>
<path d="M228.355 15.5927C231.815 15.5927 233.945 18.3959 233.146 21.7247L225.756 53.4357L229.5 61.3197H183.817C180.445 61.3197 178.316 58.5165 179.114 55.1877L182.752 39.3322C183.55 35.9158 186.922 33.2002 190.293 33.2002H215.668L217.975 23.4767H191.358L193.221 15.5927H228.355ZM210.966 53.4357L213.894 41.1718H196.947L194.02 53.4357H210.966Z" fill="#FBF9F7"/>
<path d="M261.907 0.875995L259.979 9.28555H245.243L247.179 0.875995H261.907ZM258.536 15.5927L247.889 61.3197H239L234.997 53.4357L243.808 15.5927H258.536Z" fill="#FBF9F7"/>
<path d="M256.988 61.3197L271.272 0H286L271.716 61.3197H256.988Z" fill="#FBF9F7"/>
</svg>
