<svg width="224" height="95" viewBox="0 0 224 95" fill="none" xmlns="http://www.w3.org/2000/svg">
<path d="M7.9919 22.7494L10.5157 36.6519V74.1463H0V22.7494H7.9919ZM8.93831 40.9701L6.41455 39.8115V32.1231L7.36096 30.9645C8.06201 29.7007 9.14862 28.3666 10.6208 26.9623C12.1631 25.4878 13.9508 24.2591 15.9838 23.2761C18.0168 22.2228 20.0849 21.6962 22.188 21.6962C23.2396 21.6962 24.2211 21.7664 25.1324 21.9069C26.1139 22.0473 26.85 22.2931 27.3407 22.6441V32.1231H24.0809C19.3138 32.1231 15.8436 32.8603 13.6704 34.3348C11.4971 35.7391 9.91977 37.9509 8.93831 40.9701Z" fill="#FBF9F7"/>
<path d="M54.5311 75.1996C49.5537 75.1996 45.1722 74.1112 41.3865 71.9346C37.6009 69.6877 34.6565 66.5632 32.5534 62.561C30.4502 58.5588 29.3987 53.8895 29.3987 48.5532C29.3987 43.1467 30.4502 38.4424 32.5534 34.4401C34.6565 30.4379 37.6009 27.3134 41.3865 25.0665C45.1722 22.8197 49.5537 21.6962 54.5311 21.6962C59.5786 21.6962 63.9952 22.8197 67.7808 25.0665C71.5665 27.3134 74.5108 30.4379 76.614 34.4401C78.7171 38.4424 79.7687 43.1467 79.7687 48.5532C79.7687 49.0447 79.7336 49.5713 79.6635 50.133C79.6635 50.6245 79.6285 51.0809 79.5584 51.5022H39.3885V42.4446H71.9871L69.0427 48.5532C69.0427 43.2169 67.8509 38.8285 65.4674 35.388C63.0838 31.9475 59.4384 30.2273 54.5311 30.2273C50.1846 30.2273 46.7145 31.6316 44.1206 34.4401C41.5267 37.1785 40.2298 40.7945 40.2298 45.2882V50.765C40.2298 55.4693 41.4917 59.2258 44.0154 62.0344C46.5392 64.7727 50.0444 66.1419 54.5311 66.1419C58.6673 66.1419 61.857 65.2642 64.1003 63.5089C66.3437 61.7535 68.3066 59.5769 69.9891 56.9789L77.8759 61.929C75.4923 66.3525 72.4077 69.6877 68.6221 71.9346C64.9065 74.1112 60.2095 75.1996 54.5311 75.1996Z" fill="#FBF9F7"/>
<path d="M112.259 95C109.314 95 106.51 94.5787 103.846 93.7361C101.252 92.9638 98.8688 91.6648 96.6956 89.8392C94.5925 88.0137 92.6997 85.5913 91.0171 82.5721L90.281 81.2029L98.5884 76.6741C100.411 79.6933 102.339 81.9401 104.372 83.4146C106.475 84.9593 109.104 85.7317 112.259 85.7317C116.535 85.7317 119.9 84.3976 122.354 81.7295C124.878 79.0613 126.139 74.9538 126.139 69.4069V58.4534H127.191V33.071H126.139L128.663 22.7494H136.655V67.7217C136.655 73.7602 135.568 78.8156 133.395 82.888C131.292 86.9605 128.418 89.9797 124.772 91.9457C121.127 93.9819 116.956 95 112.259 95ZM110.997 70.9867C106.23 70.9867 102.024 69.9686 98.3781 67.9324C94.8028 65.8962 91.9986 63.0525 89.9656 59.4013C88.0027 55.68 87.0212 51.3618 87.0212 46.4468C87.0212 41.4616 88.0027 37.1434 89.9656 33.4922C91.9986 29.7709 94.8028 26.8921 98.3781 24.8559C102.024 22.7494 106.23 21.6962 110.997 21.6962C115.554 21.6962 119.515 22.7494 122.88 24.8559C126.315 26.8921 128.979 29.7709 130.872 33.4922C132.764 37.1434 133.711 41.4616 133.711 46.4468C133.711 51.3618 132.764 55.68 130.872 59.4013C128.979 63.0525 126.315 65.8962 122.88 67.9324C119.515 69.9686 115.554 70.9867 110.997 70.9867ZM112.259 61.929C116.605 61.929 120.075 60.5248 122.669 57.7162C125.333 54.8374 126.665 51.0458 126.665 46.3415C126.665 41.6371 125.333 37.8806 122.669 35.0721C120.075 32.1933 116.605 30.7539 112.259 30.7539C107.912 30.7539 104.407 32.1933 101.743 35.0721C99.0792 37.9509 97.7472 41.7424 97.7472 46.4468C97.7472 51.0809 99.0792 54.8374 101.743 57.7162C104.407 60.5248 107.912 61.929 112.259 61.929Z" fill="#FBF9F7"/>
<path d="M160.862 74.1463H150.346V22.7494H160.862V74.1463ZM148.769 6.95122C148.769 4.915 149.365 3.26497 150.556 2.00111C151.818 0.667036 153.501 0 155.604 0C157.637 0 159.284 0.667036 160.546 2.00111C161.808 3.26497 162.439 4.915 162.439 6.95122C162.439 8.91722 161.808 10.5673 160.546 11.9013C159.284 13.1652 157.637 13.7971 155.604 13.7971C153.501 13.7971 151.818 13.1652 150.556 11.9013C149.365 10.5673 148.769 8.91722 148.769 6.95122Z" fill="#FBF9F7"/>
<path d="M197.711 75.1996C192.523 75.1996 187.931 74.1112 183.935 71.9346C180.009 69.6877 176.96 66.5632 174.787 62.561C172.613 58.5588 171.527 53.8895 171.527 48.5532C171.527 43.1467 172.613 38.4424 174.787 34.4401C176.96 30.4379 180.009 27.3134 183.935 25.0665C187.931 22.8197 192.523 21.6962 197.711 21.6962C202.969 21.6962 207.561 22.8197 211.486 25.0665C215.412 27.3134 218.462 30.4379 220.635 34.4401C222.878 38.4424 224 43.1467 224 48.5532C224 53.8895 222.878 58.5588 220.635 62.561C218.462 66.5632 215.412 69.6877 211.486 71.9346C207.561 74.1112 202.969 75.1996 197.711 75.1996ZM197.711 65.0887C202.408 65.0887 206.158 63.5791 208.963 60.5599C211.837 57.4704 213.274 53.4682 213.274 48.5532C213.274 43.568 211.837 39.5307 208.963 36.4412C206.158 33.3518 202.408 31.8071 197.711 31.8071C193.084 31.8071 189.333 33.3518 186.459 36.4412C183.655 39.4605 182.253 43.4627 182.253 48.4479C182.253 53.4331 183.655 57.4704 186.459 60.5599C189.333 63.5791 193.084 65.0887 197.711 65.0887Z" fill="#FBF9F7"/>
</svg>
